<svg xmlns="http://www.w3.org/2000/svg" xmlns:xlink="http://www.w3.org/1999/xlink" width="500" zoomAndPan="magnify" viewBox="0 0 375 374.999991" height="500" preserveAspectRatio="xMidYMid meet" version="1.0"><defs><g/><clipPath id="id1"><path d="M 74.066406 76 L 230 76 L 230 287 L 74.066406 287 Z M 74.066406 76 " clip-rule="nonzero"/></clipPath><clipPath id="id2"><path d="M 209 91 L 283.316406 91 L 283.316406 287 L 209 287 Z M 209 91 " clip-rule="nonzero"/></clipPath></defs><path fill="rgb(39.608765%, 29.798889%, 24.708557%)" d="M 187.605469 35.355469 C 103.519531 35.355469 35.355469 103.519531 35.355469 187.605469 C 35.355469 271.691406 103.519531 339.855469 187.605469 339.855469 C 271.691406 339.855469 339.855469 271.691406 339.855469 187.605469 C 339.855469 103.519531 271.691406 35.355469 187.605469 35.355469 " fill-opacity="1" fill-rule="nonzero"/><path fill="rgb(98.81897%, 84.309387%, 43.919373%)" d="M 138.191406 222.742188 C 156.144531 222.742188 170.828125 236.75 171.875 254.394531 L 158.441406 253.046875 L 149.261719 232.4375 C 147.945312 229.476562 145.820312 227.050781 143.21875 225.367188 C 141.601562 224.324219 139.777344 223.550781 135.523438 222.773438 L 135.523438 222.671875 C 136.402344 222.707031 137.28125 222.742188 138.191406 222.742188 Z M 138.191406 222.742188 " fill-opacity="1" fill-rule="nonzero"/><path fill="rgb(98.81897%, 84.309387%, 43.919373%)" d="M 149.261719 232.4375 L 158.441406 253.046875 L 132.488281 264.5625 C 126.714844 259.648438 122.09375 253.25 119.121094 245.875 C 118.347656 243.921875 117.941406 241.867188 117.941406 239.8125 L 117.941406 239.070312 C 117.941406 230.046875 125.265625 222.742188 134.308594 222.742188 C 134.714844 222.742188 135.121094 222.742188 135.523438 222.773438 C 139.777344 223.550781 141.601562 224.324219 143.21875 225.367188 C 145.820312 227.050781 147.945312 229.476562 149.261719 232.4375 Z M 149.261719 232.4375 " fill-opacity="1" fill-rule="nonzero"/><path fill="rgb(69.799805%, 47.44873%, 27.449036%)" d="M 190.539062 118.792969 L 188.816406 117.511719 C 190.976562 113.371094 192.191406 108.6875 192.191406 103.804688 L 192.191406 101.515625 L 171.941406 104.882812 L 168.566406 88.046875 L 148.316406 98.148438 L 144.941406 81.3125 L 121.316406 94.78125 L 121.316406 84.679688 C 114.9375 86.800781 109.234375 90.335938 104.644531 94.984375 C 99.984375 99.5625 96.441406 105.253906 94.316406 111.617188 L 91.378906 112.796875 C 87.160156 114.480469 83.683594 117.34375 81.253906 120.945312 C 78.824219 124.515625 77.441406 128.792969 77.441406 133.339844 C 77.441406 136.773438 78.25 140.171875 79.769531 143.238281 L 83.042969 149.738281 C 84.394531 149.03125 85.945312 148.660156 87.566406 148.660156 L 90.941406 148.660156 C 90.941406 137.511719 100.019531 128.457031 111.191406 128.457031 L 165.191406 128.457031 C 168.601562 128.457031 171.839844 129.296875 174.640625 130.777344 C 181.054688 134.179688 185.441406 140.914062 185.441406 148.660156 L 188.816406 148.660156 C 190.570312 148.660156 192.226562 149.097656 193.640625 149.871094 L 195.398438 147.210938 C 197.726562 143.777344 198.941406 139.703125 198.941406 135.558594 C 198.941406 128.960938 195.835938 122.765625 190.539062 118.792969 Z M 190.539062 118.792969 " fill-opacity="1" fill-rule="nonzero"/><path fill="rgb(90.19928%, 91.369629%, 92.939758%)" d="M 279.941406 114.984375 L 279.941406 172.230469 C 279.941406 174.082031 278.421875 175.597656 276.566406 175.597656 L 266.375 175.597656 C 266.40625 175.296875 266.441406 174.992188 266.441406 174.722656 C 266.441406 171.488281 263.808594 168.863281 260.570312 168.863281 L 257.296875 168.863281 C 254.695312 168.863281 252.433594 170.546875 251.660156 173.003906 L 250.882812 175.597656 L 215.816406 175.597656 C 213.960938 175.597656 212.441406 174.082031 212.441406 172.230469 L 212.441406 114.984375 Z M 279.941406 114.984375 " fill-opacity="1" fill-rule="nonzero"/><path fill="rgb(70.588684%, 86.669922%, 49.798584%)" d="M 215.816406 94.78125 L 276.566406 94.78125 C 278.421875 94.78125 279.941406 96.296875 279.941406 98.148438 L 279.941406 114.984375 L 212.441406 114.984375 L 212.441406 98.148438 C 212.441406 96.296875 213.960938 94.78125 215.816406 94.78125 Z M 215.816406 94.78125 " fill-opacity="1" fill-rule="nonzero"/><path fill="rgb(79.998779%, 81.959534%, 85.099792%)" d="M 251.050781 226.109375 L 244.097656 248.90625 C 243.324219 251.363281 241.0625 253.046875 238.460938 253.046875 L 235.1875 253.046875 C 231.949219 253.046875 229.316406 250.421875 229.316406 247.1875 C 229.316406 246.613281 229.417969 246.042969 229.585938 245.46875 L 250.882812 175.597656 L 251.660156 173.003906 C 252.433594 170.546875 254.695312 168.863281 257.296875 168.863281 L 260.570312 168.863281 C 263.808594 168.863281 266.441406 171.488281 266.441406 174.722656 C 266.441406 174.992188 266.40625 175.296875 266.375 175.597656 C 266.304688 175.867188 266.238281 176.136719 266.171875 176.441406 L 259.960938 196.777344 L 259.960938 196.8125 Z M 251.050781 226.109375 " fill-opacity="1" fill-rule="nonzero"/><path fill="rgb(66.668701%, 69.799805%, 74.119568%)" d="M 279.941406 269.882812 L 279.941406 279.984375 C 279.941406 281.835938 278.421875 283.351562 276.566406 283.351562 L 242.816406 283.351562 C 240.960938 283.351562 239.441406 281.835938 239.441406 279.984375 L 239.441406 273.25 C 239.441406 271.398438 240.960938 269.882812 242.816406 269.882812 Z M 279.941406 269.882812 " fill-opacity="1" fill-rule="nonzero"/><path fill="rgb(66.668701%, 69.799805%, 74.119568%)" d="M 225.941406 273.25 L 225.941406 279.984375 C 225.941406 281.835938 224.421875 283.351562 222.566406 283.351562 L 175.316406 283.351562 C 173.460938 283.351562 171.941406 281.835938 171.941406 279.984375 L 171.941406 273.25 C 171.941406 271.398438 173.460938 269.882812 175.316406 269.882812 L 222.566406 269.882812 C 224.421875 269.882812 225.941406 271.398438 225.941406 273.25 Z M 225.941406 273.25 " fill-opacity="1" fill-rule="nonzero"/><path fill="rgb(94.119263%, 81.568909%, 70.588684%)" d="M 192.191406 269.882812 L 175.316406 269.882812 C 173.460938 269.882812 171.941406 271.398438 171.941406 273.25 L 171.941406 276.617188 L 164.652344 276.617188 C 152.570312 276.617188 141.230469 272.207031 132.488281 264.5625 L 158.441406 253.046875 L 171.875 254.394531 L 178.757812 255.066406 C 186.386719 255.839844 192.191406 262.238281 192.191406 269.882812 Z M 192.191406 269.882812 " fill-opacity="1" fill-rule="nonzero"/><path fill="rgb(94.119263%, 81.568909%, 70.588684%)" d="M 193.640625 149.871094 C 196.816406 151.589844 198.941406 154.921875 198.941406 158.761719 C 198.941406 161.554688 197.792969 164.082031 195.972656 165.898438 C 194.148438 167.71875 191.617188 168.863281 188.816406 168.863281 L 185.441406 168.863281 L 185.441406 148.660156 L 188.816406 148.660156 C 190.570312 148.660156 192.226562 149.097656 193.640625 149.871094 Z M 193.640625 149.871094 " fill-opacity="1" fill-rule="nonzero"/><path fill="rgb(94.119263%, 81.568909%, 70.588684%)" d="M 144.941406 155.394531 C 144.941406 151.691406 147.980469 148.660156 151.691406 148.660156 L 178.691406 148.660156 C 182.402344 148.660156 185.441406 151.691406 185.441406 155.394531 L 185.441406 148.660156 C 185.441406 140.914062 181.054688 134.179688 174.640625 130.777344 C 171.839844 129.296875 168.601562 128.457031 165.191406 128.457031 L 111.191406 128.457031 C 100.019531 128.457031 90.941406 137.511719 90.941406 148.660156 L 90.941406 155.394531 C 90.941406 151.691406 93.980469 148.660156 97.691406 148.660156 L 124.691406 148.660156 C 128.402344 148.660156 131.441406 151.691406 131.441406 155.394531 L 131.441406 175.597656 C 131.441406 179.300781 128.402344 182.332031 124.691406 182.332031 L 97.691406 182.332031 C 94.214844 182.332031 91.3125 179.671875 90.976562 176.273438 C 91.3125 201.089844 110.886719 221.292969 135.523438 222.671875 C 136.402344 222.707031 137.28125 222.742188 138.191406 222.742188 C 151.21875 222.742188 163.03125 217.453125 171.605469 208.933594 C 180.007812 200.550781 185.273438 189.035156 185.40625 176.273438 C 185.070312 179.671875 182.167969 182.332031 178.691406 182.332031 L 151.691406 182.332031 C 147.980469 182.332031 144.941406 179.300781 144.941406 175.597656 Z M 144.941406 155.394531 " fill-opacity="1" fill-rule="nonzero"/><path fill="rgb(94.119263%, 81.568909%, 70.588684%)" d="M 90.941406 148.660156 L 90.941406 168.863281 L 87.566406 168.863281 C 84.765625 168.863281 82.234375 167.71875 80.410156 165.898438 C 78.589844 164.082031 77.441406 161.554688 77.441406 158.761719 C 77.441406 154.789062 79.703125 151.386719 83.042969 149.738281 C 84.394531 149.03125 85.945312 148.660156 87.566406 148.660156 Z M 90.941406 148.660156 " fill-opacity="1" fill-rule="nonzero"/><path fill="rgb(41.178894%, 83.918762%, 95.689392%)" d="M 185.441406 168.863281 L 185.441406 175.597656 C 185.441406 175.832031 185.441406 176.070312 185.40625 176.273438 C 185.070312 179.671875 182.167969 182.332031 178.691406 182.332031 L 151.691406 182.332031 C 147.980469 182.332031 144.941406 179.300781 144.941406 175.597656 L 144.941406 155.394531 C 144.941406 151.691406 147.980469 148.660156 151.691406 148.660156 L 178.691406 148.660156 C 182.402344 148.660156 185.441406 151.691406 185.441406 155.394531 Z M 185.441406 168.863281 " fill-opacity="1" fill-rule="nonzero"/><path fill="rgb(41.178894%, 83.918762%, 95.689392%)" d="M 131.441406 162.128906 L 131.441406 175.597656 C 131.441406 179.300781 128.402344 182.332031 124.691406 182.332031 L 97.691406 182.332031 C 94.214844 182.332031 91.3125 179.671875 90.976562 176.273438 C 90.941406 176.070312 90.941406 175.832031 90.941406 175.597656 L 90.941406 155.394531 C 90.941406 151.691406 93.980469 148.660156 97.691406 148.660156 L 124.691406 148.660156 C 128.402344 148.660156 131.441406 151.691406 131.441406 155.394531 Z M 131.441406 162.128906 " fill-opacity="1" fill-rule="nonzero"/><path fill="rgb(0%, 0%, 0%)" d="M 158.085938 197.308594 L 152.050781 194.292969 C 150.542969 197.300781 147.511719 199.164062 144.144531 199.164062 L 128.066406 199.164062 L 128.066406 205.902344 L 144.144531 205.902344 C 150.082031 205.902344 155.425781 202.605469 158.085938 197.308594 Z M 158.085938 197.308594 " fill-opacity="1" fill-rule="nonzero"/><path fill="rgb(0%, 0%, 0%)" d="M 104.441406 169.65625 C 105.726562 167.089844 108.3125 165.496094 111.191406 165.496094 C 114.070312 165.496094 116.65625 167.09375 117.941406 169.65625 L 118.296875 170.367188 L 124.332031 167.355469 L 123.980469 166.644531 C 121.542969 161.78125 116.640625 158.757812 111.191406 158.757812 C 105.742188 158.757812 100.839844 161.777344 98.402344 166.644531 L 98.050781 167.355469 L 104.085938 170.367188 Z M 104.441406 169.65625 " fill-opacity="1" fill-rule="nonzero"/><path fill="rgb(0%, 0%, 0%)" d="M 165.191406 158.761719 C 159.742188 158.761719 154.839844 161.78125 152.402344 166.648438 L 152.050781 167.359375 L 158.085938 170.371094 L 158.441406 169.65625 C 159.726562 167.089844 162.3125 165.496094 165.191406 165.496094 C 168.070312 165.496094 170.65625 167.09375 171.941406 169.65625 L 172.296875 170.367188 L 178.332031 167.355469 L 177.980469 166.644531 C 175.542969 161.78125 170.640625 158.761719 165.191406 158.761719 Z M 165.191406 158.761719 " fill-opacity="1" fill-rule="nonzero"/><g clip-path="url(#id1)"><path fill="rgb(0%, 0%, 0%)" d="M 222.566406 266.515625 L 195.253906 266.515625 C 193.792969 258.667969 187.339844 252.546875 179.097656 251.71875 L 174.9375 251.304688 C 173.226562 238.949219 165.4375 228.617188 154.738281 223.28125 C 174.539062 216.421875 188.816406 197.664062 188.816406 175.597656 L 188.816406 172.230469 C 196.261719 172.230469 202.316406 166.191406 202.316406 158.761719 C 202.316406 154.972656 200.730469 151.558594 198.199219 149.109375 L 198.21875 149.078125 C 200.898438 145.058594 202.316406 140.394531 202.316406 135.574219 C 202.316406 128.128906 198.816406 121.027344 192.957031 116.441406 C 194.609375 112.496094 195.566406 108.222656 195.566406 103.789062 L 195.566406 97.539062 L 174.609375 101.023438 L 171.007812 83.0625 L 150.757812 93.164062 L 147.332031 76.070312 L 124.691406 88.976562 L 124.691406 80.007812 L 120.25 81.484375 C 107.066406 85.867188 96.480469 96.109375 91.644531 109.058594 L 90.132812 109.664062 C 80.371094 113.554688 74.066406 122.847656 74.066406 133.335938 C 74.066406 137.269531 74.996094 141.210938 76.761719 144.738281 L 78.730469 148.660156 C 75.894531 151.128906 74.066406 154.71875 74.066406 158.761719 C 74.066406 166.191406 80.121094 172.230469 87.566406 172.230469 L 87.566406 175.597656 C 87.566406 197.894531 102.132812 216.824219 122.253906 223.503906 C 117.585938 227.109375 114.566406 232.734375 114.566406 239.066406 L 114.566406 239.800781 C 114.566406 242.308594 115.042969 244.769531 115.976562 247.113281 C 123.984375 267.082031 143.082031 279.984375 164.640625 279.984375 L 168.566406 279.984375 C 168.566406 283.699219 171.59375 286.71875 175.316406 286.71875 L 222.566406 286.71875 C 226.289062 286.71875 229.316406 283.699219 229.316406 279.984375 L 229.316406 273.25 C 229.316406 269.535156 226.289062 266.515625 222.566406 266.515625 Z M 167.980469 250.613281 L 160.730469 249.886719 L 152.347656 231.066406 C 152.042969 230.382812 151.671875 229.742188 151.292969 229.101562 C 159.792969 233.171875 166.121094 241.066406 167.980469 250.613281 Z M 178.691406 178.964844 L 151.691406 178.964844 C 149.828125 178.964844 148.316406 177.457031 148.316406 175.597656 L 148.316406 155.394531 C 148.316406 153.535156 149.828125 152.027344 151.691406 152.027344 L 178.691406 152.027344 C 180.554688 152.027344 182.066406 153.535156 182.066406 155.394531 L 182.066406 175.597656 C 182.066406 177.453125 180.554688 178.964844 178.691406 178.964844 Z M 141.566406 155.394531 L 141.566406 158.761719 L 134.816406 158.761719 L 134.816406 155.394531 C 134.816406 149.824219 130.273438 145.292969 124.691406 145.292969 L 97.691406 145.292969 C 96.609375 145.292969 95.582031 145.507812 94.601562 145.824219 C 95.964844 137.894531 102.859375 131.824219 111.191406 131.824219 L 165.191406 131.824219 C 173.519531 131.824219 180.417969 137.890625 181.78125 145.824219 C 180.800781 145.507812 179.773438 145.292969 178.691406 145.292969 L 151.691406 145.292969 C 146.109375 145.292969 141.566406 149.820312 141.566406 155.394531 Z M 94.316406 175.597656 L 94.316406 155.394531 C 94.316406 153.535156 95.828125 152.027344 97.691406 152.027344 L 124.691406 152.027344 C 126.554688 152.027344 128.066406 153.535156 128.066406 155.394531 L 128.066406 175.597656 C 128.066406 177.457031 126.554688 178.964844 124.691406 178.964844 L 97.691406 178.964844 C 95.828125 178.964844 94.316406 177.453125 94.316406 175.597656 Z M 188.816406 165.496094 L 188.816406 152.027344 C 192.539062 152.027344 195.566406 155.046875 195.566406 158.761719 C 195.566406 162.476562 192.539062 165.496094 188.816406 165.496094 Z M 195.566406 135.574219 C 195.566406 139.058594 194.539062 142.4375 192.601562 145.339844 L 192.296875 145.800781 C 191.179688 145.5 190.027344 145.292969 188.816406 145.292969 L 188.546875 145.292969 C 187.734375 139.683594 184.949219 134.714844 180.902344 131.105469 C 184.378906 128.78125 187.335938 125.847656 189.671875 122.472656 C 193.375 125.785156 195.566406 130.566406 195.566406 135.574219 Z M 117.941406 89.660156 L 117.941406 100.585938 L 142.550781 86.550781 L 145.871094 103.128906 L 166.121094 93.027344 L 169.273438 108.738281 L 188.757812 105.5 C 188.15625 114.660156 182.730469 122.824219 174.542969 127.019531 C 171.671875 125.78125 168.511719 125.085938 165.191406 125.085938 L 111.191406 125.085938 C 109.960938 125.085938 108.757812 125.210938 107.578125 125.390625 L 98.097656 111.203125 C 101.695312 101.753906 108.84375 93.988281 117.941406 89.660156 Z M 82.800781 141.722656 C 81.5 139.132812 80.816406 136.230469 80.816406 133.335938 C 80.816406 125.617188 85.457031 118.78125 92.636719 115.914062 L 93.027344 115.757812 L 100.867188 127.488281 C 93.976562 130.847656 88.96875 137.441406 87.835938 145.289062 L 87.566406 145.289062 C 86.597656 145.289062 85.65625 145.398438 84.746094 145.59375 Z M 80.816406 158.761719 C 80.816406 155.046875 83.84375 152.027344 87.566406 152.027344 L 87.566406 165.496094 C 83.84375 165.496094 80.816406 162.472656 80.816406 158.761719 Z M 95.472656 185.4375 C 96.1875 185.597656 96.925781 185.695312 97.691406 185.695312 L 124.691406 185.695312 C 130.273438 185.695312 134.816406 181.164062 134.816406 175.59375 L 134.816406 165.492188 L 141.566406 165.492188 L 141.566406 175.59375 C 141.566406 181.164062 146.109375 185.695312 151.691406 185.695312 L 178.691406 185.695312 C 179.453125 185.695312 180.191406 185.59375 180.910156 185.4375 C 176.414062 204.847656 158.988281 219.375 138.191406 219.375 C 117.394531 219.375 99.96875 204.847656 95.472656 185.4375 Z M 122.246094 244.617188 C 121.628906 243.074219 121.316406 241.449219 121.316406 239.800781 L 121.316406 239.066406 C 121.316406 231.921875 127.144531 226.105469 134.304688 226.105469 C 139.4375 226.105469 144.09375 229.125 146.179688 233.800781 L 153.988281 251.332031 L 133.0625 260.613281 C 128.460938 256.210938 124.730469 250.8125 122.246094 244.617188 Z M 168.566406 273.25 L 164.640625 273.25 C 155.210938 273.25 146.320312 270.410156 138.921875 265.386719 L 159 256.488281 L 178.425781 258.425781 C 183.175781 258.898438 186.945312 262.179688 188.273438 266.515625 L 175.316406 266.515625 C 171.59375 266.515625 168.566406 269.535156 168.566406 273.25 Z M 175.316406 279.984375 L 175.316406 273.25 L 222.566406 273.25 L 222.574219 279.984375 Z M 175.316406 279.984375 " fill-opacity="1" fill-rule="nonzero"/></g><path fill="rgb(0%, 0%, 0%)" d="M 183.054688 213.625 L 170.542969 226.109375 L 183.054688 238.589844 L 187.828125 233.828125 L 180.089844 226.109375 L 187.828125 218.386719 Z M 183.054688 213.625 " fill-opacity="1" fill-rule="nonzero"/><path fill="rgb(0%, 0%, 0%)" d="M 214.828125 238.589844 L 227.339844 226.109375 L 214.828125 213.625 L 210.054688 218.386719 L 217.792969 226.109375 L 210.054688 233.828125 Z M 214.828125 238.589844 " fill-opacity="1" fill-rule="nonzero"/><path fill="rgb(0%, 0%, 0%)" d="M 189.0625 241.691406 L 202.558594 208.019531 L 208.828125 210.519531 L 195.328125 244.191406 Z M 189.0625 241.691406 " fill-opacity="1" fill-rule="nonzero"/><g clip-path="url(#id2)"><path fill="rgb(0%, 0%, 0%)" d="M 276.566406 178.964844 C 280.289062 178.964844 283.316406 175.945312 283.316406 172.230469 L 283.316406 98.148438 C 283.316406 94.433594 280.289062 91.414062 276.566406 91.414062 L 215.816406 91.414062 C 212.09375 91.414062 209.066406 94.433594 209.066406 98.148438 L 209.066406 172.230469 C 209.066406 175.945312 212.09375 178.964844 215.816406 178.964844 L 246.328125 178.964844 L 226.339844 244.5 C 226.078125 245.367188 225.941406 246.273438 225.941406 247.179688 C 225.941406 252.273438 230.089844 256.410156 235.191406 256.410156 L 238.460938 256.410156 C 242.558594 256.410156 246.121094 253.785156 247.316406 249.867188 L 253.535156 229.472656 L 265.824219 229.472656 L 276.304688 266.066406 C 276.351562 266.214844 276.382812 266.363281 276.414062 266.511719 L 242.816406 266.511719 C 239.09375 266.511719 236.066406 269.53125 236.066406 273.246094 L 236.066406 279.980469 C 236.066406 283.695312 239.09375 286.714844 242.816406 286.714844 L 276.566406 286.714844 C 280.289062 286.714844 283.316406 283.695312 283.316406 279.980469 L 283.316406 267.925781 C 283.316406 266.683594 283.140625 265.441406 282.800781 264.226562 L 263.496094 196.824219 L 268.941406 178.960938 L 276.566406 178.960938 Z M 276.566406 279.984375 L 242.816406 279.984375 L 242.816406 273.25 L 276.566406 273.25 Z M 269.429688 172.230469 C 268.328125 168.359375 264.792969 165.496094 260.5625 165.496094 L 257.296875 165.496094 C 256.960938 165.496094 256.640625 165.539062 256.316406 165.574219 L 256.316406 118.351562 L 276.566406 118.351562 L 276.566406 172.230469 Z M 276.566406 98.148438 L 276.566406 111.617188 L 242.816406 111.617188 L 242.816406 104.882812 L 236.066406 104.882812 L 236.066406 111.617188 L 229.316406 111.617188 L 229.316406 104.882812 L 222.566406 104.882812 L 222.566406 111.617188 L 215.816406 111.617188 L 215.816406 98.148438 Z M 215.816406 172.230469 L 215.816406 118.351562 L 249.566406 118.351562 L 249.566406 169.683594 C 249.097656 170.402344 248.707031 171.183594 248.441406 172.042969 L 248.386719 172.234375 L 215.816406 172.234375 Z M 240.859375 247.90625 C 240.53125 248.964844 239.570312 249.675781 238.460938 249.675781 L 235.191406 249.675781 C 233.8125 249.675781 232.691406 248.558594 232.691406 247.179688 C 232.691406 246.933594 232.726562 246.6875 232.800781 246.453125 L 254.898438 174 C 255.226562 172.9375 256.1875 172.226562 257.296875 172.226562 L 260.566406 172.226562 C 261.945312 172.226562 263.066406 173.34375 263.066406 174.722656 C 263.066406 174.96875 263.027344 175.214844 262.957031 175.449219 Z M 263.894531 222.742188 L 255.589844 222.742188 L 259.875 208.699219 Z M 263.894531 222.742188 " fill-opacity="1" fill-rule="nonzero"/></g><path fill="rgb(0%, 0%, 0%)" d="M 263.066406 125.089844 L 269.816406 125.089844 L 269.816406 131.824219 L 263.066406 131.824219 Z M 263.066406 125.089844 " fill-opacity="1" fill-rule="nonzero"/><path fill="rgb(0%, 0%, 0%)" d="M 263.066406 138.558594 L 269.816406 138.558594 L 269.816406 145.292969 L 263.066406 145.292969 Z M 263.066406 138.558594 " fill-opacity="1" fill-rule="nonzero"/><path fill="rgb(0%, 0%, 0%)" d="M 222.566406 125.089844 L 242.816406 125.089844 L 242.816406 131.824219 L 222.566406 131.824219 Z M 222.566406 125.089844 " fill-opacity="1" fill-rule="nonzero"/><path fill="rgb(0%, 0%, 0%)" d="M 222.566406 138.558594 L 242.816406 138.558594 L 242.816406 145.292969 L 222.566406 145.292969 Z M 222.566406 138.558594 " fill-opacity="1" fill-rule="nonzero"/><path fill="rgb(0%, 0%, 0%)" d="M 222.566406 152.027344 L 242.816406 152.027344 L 242.816406 158.761719 L 222.566406 158.761719 Z M 222.566406 152.027344 " fill-opacity="1" fill-rule="nonzero"/><path fill="rgb(0%, 0%, 0%)" d="M 263.066406 152.027344 L 269.816406 152.027344 L 269.816406 158.761719 L 263.066406 158.761719 Z M 263.066406 152.027344 " fill-opacity="1" fill-rule="nonzero"/><g fill="rgb(100%, 0%, 0%)" fill-opacity="1"><g transform="translate(75.734474, 365.406308)"><g><path d="M 12.871094 0 L 12.871094 -15.761719 L 20.925781 -15.761719 L 20.925781 -20.429688 L 0.144531 -20.429688 L 0.144531 -15.761719 L 8.203125 -15.761719 L 8.203125 0 Z M 12.871094 0 "/></g></g></g><g fill="rgb(100%, 0%, 0%)" fill-opacity="1"><g transform="translate(99.931218, 365.406308)"><g><path d="M 21.308594 0 L 21.308594 -4.671875 L 6.128906 -4.671875 L 6.128906 -15.761719 L 17.367188 -15.761719 L 17.367188 -12.257812 L 7.589844 -12.257812 L 7.589844 -7.589844 L 19.117188 -7.589844 L 22.035156 -10.507812 L 22.035156 -17.511719 L 19.117188 -20.429688 L 4.378906 -20.429688 L 1.460938 -17.511719 L 1.460938 -2.917969 L 4.378906 0 Z M 21.308594 0 "/></g></g></g><g fill="rgb(100%, 0%, 0%)" fill-opacity="1"><g transform="translate(126.550554, 365.406308)"><g><path d="M 21.308594 0 L 21.308594 -4.671875 L 6.128906 -4.671875 L 6.128906 -15.761719 L 17.367188 -15.761719 L 17.367188 -12.84375 L 22.035156 -12.84375 L 22.035156 -17.511719 L 19.117188 -20.429688 L 4.378906 -20.429688 L 1.460938 -17.511719 L 1.460938 -2.917969 L 4.378906 0 Z M 21.308594 0 "/></g></g></g><g fill="rgb(100%, 0%, 0%)" fill-opacity="1"><g transform="translate(153.169887, 365.406308)"><g><path d="M 22.183594 0 L 22.183594 -20.429688 L 17.511719 -20.429688 L 17.511719 -12.550781 L 7.003906 -12.550781 L 7.003906 -20.429688 L 0.144531 -20.429688 L 0.144531 -15.761719 L 2.335938 -15.761719 L 2.335938 0 L 7.003906 0 L 7.003906 -7.878906 L 17.511719 -7.878906 L 17.511719 0 Z M 22.183594 0 "/></g></g></g><g fill="rgb(100%, 0%, 0%)" fill-opacity="1"><g transform="translate(179.935157, 365.406308)"><g/></g></g><g fill="rgb(100%, 0%, 0%)" fill-opacity="1"><g transform="translate(194.733411, 365.406308)"><g><path d="M 24.605469 0 L 15.0625 -20.429688 L 5.429688 -20.429688 L 5.429688 -15.761719 L 7.617188 -15.761719 L 0.292969 0 L 5.398438 0 L 7.035156 -3.503906 L 17.832031 -3.503906 L 19.496094 0 Z M 15.644531 -8.171875 L 9.195312 -8.171875 L 12.316406 -15.847656 L 12.523438 -15.847656 Z M 15.644531 -8.171875 "/></g></g></g><g fill="rgb(100%, 0%, 0%)" fill-opacity="1"><g transform="translate(222.75376, 365.406308)"><g/></g></g><g fill="rgb(100%, 0%, 0%)" fill-opacity="1"><g transform="translate(237.552013, 365.406308)"><g><path d="M 21.921875 0 L 17.132812 -10.214844 L 21.921875 -20.429688 L 16.78125 -20.429688 L 13.074219 -12.550781 L 7.003906 -12.550781 L 7.003906 -20.429688 L 0.144531 -20.429688 L 0.144531 -15.761719 L 2.335938 -15.761719 L 2.335938 0 L 7.003906 0 L 7.003906 -7.878906 L 13.132812 -7.878906 L 16.78125 0 Z M 21.921875 0 "/></g></g></g><g fill="rgb(100%, 0%, 0%)" fill-opacity="1"><g transform="translate(263.470833, 365.406308)"><g><path d="M 6.128906 0 L 6.128906 -20.429688 L 1.460938 -20.429688 L 1.460938 0 Z M 6.128906 0 "/></g></g></g><g fill="rgb(100%, 0%, 0%)" fill-opacity="1"><g transform="translate(274.182771, 365.406308)"><g><path d="M 17.804688 0 L 20.722656 -2.917969 L 20.722656 -17.511719 L 17.804688 -20.429688 L 0.144531 -20.429688 L 0.144531 -15.761719 L 16.054688 -15.761719 L 16.054688 -4.671875 L 7.003906 -4.671875 L 7.003906 -14.300781 L 2.335938 -14.300781 L 2.335938 0 Z M 17.804688 0 "/></g></g></g><g fill="rgb(0%, 100%, 100%)" fill-opacity="1"><g transform="translate(78.631511, 365.050584)"><g><path d="M 12.871094 0 L 12.871094 -15.761719 L 20.925781 -15.761719 L 20.925781 -20.429688 L 0.144531 -20.429688 L 0.144531 -15.761719 L 8.203125 -15.761719 L 8.203125 0 Z M 12.871094 0 "/></g></g></g><g fill="rgb(0%, 100%, 100%)" fill-opacity="1"><g transform="translate(102.828255, 365.050584)"><g><path d="M 21.308594 0 L 21.308594 -4.671875 L 6.128906 -4.671875 L 6.128906 -15.761719 L 17.367188 -15.761719 L 17.367188 -12.257812 L 7.589844 -12.257812 L 7.589844 -7.589844 L 19.117188 -7.589844 L 22.035156 -10.507812 L 22.035156 -17.511719 L 19.117188 -20.429688 L 4.378906 -20.429688 L 1.460938 -17.511719 L 1.460938 -2.917969 L 4.378906 0 Z M 21.308594 0 "/></g></g></g><g fill="rgb(0%, 100%, 100%)" fill-opacity="1"><g transform="translate(129.447591, 365.050584)"><g><path d="M 21.308594 0 L 21.308594 -4.671875 L 6.128906 -4.671875 L 6.128906 -15.761719 L 17.367188 -15.761719 L 17.367188 -12.84375 L 22.035156 -12.84375 L 22.035156 -17.511719 L 19.117188 -20.429688 L 4.378906 -20.429688 L 1.460938 -17.511719 L 1.460938 -2.917969 L 4.378906 0 Z M 21.308594 0 "/></g></g></g><g fill="rgb(0%, 100%, 100%)" fill-opacity="1"><g transform="translate(156.066924, 365.050584)"><g><path d="M 22.183594 0 L 22.183594 -20.429688 L 17.511719 -20.429688 L 17.511719 -12.550781 L 7.003906 -12.550781 L 7.003906 -20.429688 L 0.144531 -20.429688 L 0.144531 -15.761719 L 2.335938 -15.761719 L 2.335938 0 L 7.003906 0 L 7.003906 -7.878906 L 17.511719 -7.878906 L 17.511719 0 Z M 22.183594 0 "/></g></g></g><g fill="rgb(0%, 100%, 100%)" fill-opacity="1"><g transform="translate(182.832195, 365.050584)"><g/></g></g><g fill="rgb(0%, 100%, 100%)" fill-opacity="1"><g transform="translate(197.630448, 365.050584)"><g><path d="M 24.605469 0 L 15.0625 -20.429688 L 5.429688 -20.429688 L 5.429688 -15.761719 L 7.617188 -15.761719 L 0.292969 0 L 5.398438 0 L 7.035156 -3.503906 L 17.832031 -3.503906 L 19.496094 0 Z M 15.644531 -8.171875 L 9.195312 -8.171875 L 12.316406 -15.847656 L 12.523438 -15.847656 Z M 15.644531 -8.171875 "/></g></g></g><g fill="rgb(0%, 100%, 100%)" fill-opacity="1"><g transform="translate(225.650797, 365.050584)"><g/></g></g><g fill="rgb(0%, 100%, 100%)" fill-opacity="1"><g transform="translate(240.449051, 365.050584)"><g><path d="M 21.921875 0 L 17.132812 -10.214844 L 21.921875 -20.429688 L 16.78125 -20.429688 L 13.074219 -12.550781 L 7.003906 -12.550781 L 7.003906 -20.429688 L 0.144531 -20.429688 L 0.144531 -15.761719 L 2.335938 -15.761719 L 2.335938 0 L 7.003906 0 L 7.003906 -7.878906 L 13.132812 -7.878906 L 16.78125 0 Z M 21.921875 0 "/></g></g></g><g fill="rgb(0%, 100%, 100%)" fill-opacity="1"><g transform="translate(266.36787, 365.050584)"><g><path d="M 6.128906 0 L 6.128906 -20.429688 L 1.460938 -20.429688 L 1.460938 0 Z M 6.128906 0 "/></g></g></g><g fill="rgb(0%, 100%, 100%)" fill-opacity="1"><g transform="translate(277.079808, 365.050584)"><g><path d="M 17.804688 0 L 20.722656 -2.917969 L 20.722656 -17.511719 L 17.804688 -20.429688 L 0.144531 -20.429688 L 0.144531 -15.761719 L 16.054688 -15.761719 L 16.054688 -4.671875 L 7.003906 -4.671875 L 7.003906 -14.300781 L 2.335938 -14.300781 L 2.335938 0 Z M 17.804688 0 "/></g></g></g><g fill="rgb(53.329468%, 100%, 33.329773%)" fill-opacity="1"><g transform="translate(77.182994, 365.228446)"><g><path d="M 12.871094 0 L 12.871094 -15.761719 L 20.925781 -15.761719 L 20.925781 -20.429688 L 0.144531 -20.429688 L 0.144531 -15.761719 L 8.203125 -15.761719 L 8.203125 0 Z M 12.871094 0 "/></g></g></g><g fill="rgb(53.329468%, 100%, 33.329773%)" fill-opacity="1"><g transform="translate(101.379738, 365.228446)"><g><path d="M 21.308594 0 L 21.308594 -4.671875 L 6.128906 -4.671875 L 6.128906 -15.761719 L 17.367188 -15.761719 L 17.367188 -12.257812 L 7.589844 -12.257812 L 7.589844 -7.589844 L 19.117188 -7.589844 L 22.035156 -10.507812 L 22.035156 -17.511719 L 19.117188 -20.429688 L 4.378906 -20.429688 L 1.460938 -17.511719 L 1.460938 -2.917969 L 4.378906 0 Z M 21.308594 0 "/></g></g></g><g fill="rgb(53.329468%, 100%, 33.329773%)" fill-opacity="1"><g transform="translate(127.999074, 365.228446)"><g><path d="M 21.308594 0 L 21.308594 -4.671875 L 6.128906 -4.671875 L 6.128906 -15.761719 L 17.367188 -15.761719 L 17.367188 -12.84375 L 22.035156 -12.84375 L 22.035156 -17.511719 L 19.117188 -20.429688 L 4.378906 -20.429688 L 1.460938 -17.511719 L 1.460938 -2.917969 L 4.378906 0 Z M 21.308594 0 "/></g></g></g><g fill="rgb(53.329468%, 100%, 33.329773%)" fill-opacity="1"><g transform="translate(154.618407, 365.228446)"><g><path d="M 22.183594 0 L 22.183594 -20.429688 L 17.511719 -20.429688 L 17.511719 -12.550781 L 7.003906 -12.550781 L 7.003906 -20.429688 L 0.144531 -20.429688 L 0.144531 -15.761719 L 2.335938 -15.761719 L 2.335938 0 L 7.003906 0 L 7.003906 -7.878906 L 17.511719 -7.878906 L 17.511719 0 Z M 22.183594 0 "/></g></g></g><g fill="rgb(53.329468%, 100%, 33.329773%)" fill-opacity="1"><g transform="translate(181.383677, 365.228446)"><g/></g></g><g fill="rgb(53.329468%, 100%, 33.329773%)" fill-opacity="1"><g transform="translate(196.181931, 365.228446)"><g><path d="M 24.605469 0 L 15.0625 -20.429688 L 5.429688 -20.429688 L 5.429688 -15.761719 L 7.617188 -15.761719 L 0.292969 0 L 5.398438 0 L 7.035156 -3.503906 L 17.832031 -3.503906 L 19.496094 0 Z M 15.644531 -8.171875 L 9.195312 -8.171875 L 12.316406 -15.847656 L 12.523438 -15.847656 Z M 15.644531 -8.171875 "/></g></g></g><g fill="rgb(53.329468%, 100%, 33.329773%)" fill-opacity="1"><g transform="translate(224.20228, 365.228446)"><g/></g></g><g fill="rgb(53.329468%, 100%, 33.329773%)" fill-opacity="1"><g transform="translate(239.000533, 365.228446)"><g><path d="M 21.921875 0 L 17.132812 -10.214844 L 21.921875 -20.429688 L 16.78125 -20.429688 L 13.074219 -12.550781 L 7.003906 -12.550781 L 7.003906 -20.429688 L 0.144531 -20.429688 L 0.144531 -15.761719 L 2.335938 -15.761719 L 2.335938 0 L 7.003906 0 L 7.003906 -7.878906 L 13.132812 -7.878906 L 16.78125 0 Z M 21.921875 0 "/></g></g></g><g fill="rgb(53.329468%, 100%, 33.329773%)" fill-opacity="1"><g transform="translate(264.919353, 365.228446)"><g><path d="M 6.128906 0 L 6.128906 -20.429688 L 1.460938 -20.429688 L 1.460938 0 Z M 6.128906 0 "/></g></g></g><g fill="rgb(53.329468%, 100%, 33.329773%)" fill-opacity="1"><g transform="translate(275.631291, 365.228446)"><g><path d="M 17.804688 0 L 20.722656 -2.917969 L 20.722656 -17.511719 L 17.804688 -20.429688 L 0.144531 -20.429688 L 0.144531 -15.761719 L 16.054688 -15.761719 L 16.054688 -4.671875 L 7.003906 -4.671875 L 7.003906 -14.300781 L 2.335938 -14.300781 L 2.335938 0 Z M 17.804688 0 "/></g></g></g></svg>